<svg xmlns="http://www.w3.org/2000/svg" viewBox="0 0 20 20" width="20" height="20">
	<style>
		tspan { white-space:pre }
		.shp0 { fill: #000000 } 
	</style>
	<path id="Layer" fill-rule="evenodd" class="shp0" d="M16.24 11.91C15.91 12.71 15.42 13.44 14.81 14.06C14.19 14.67 13.46 15.16 12.66 15.5C11.86 15.83 10.99 16 10.12 16C7.44 16 5.03 14.39 4 11.91C2.98 9.43 3.54 6.59 5.44 4.69C7.33 2.8 10.18 2.23 12.66 3.25C15.13 4.28 16.75 6.7 16.75 9.37C16.75 10.24 16.58 11.11 16.24 11.91ZM4.78 9.37C4.78 10.08 4.92 10.77 5.19 11.42C5.46 12.07 5.85 12.66 6.35 13.15C6.84 13.65 7.43 14.04 8.08 14.31C8.73 14.58 9.42 14.72 10.12 14.72C12.28 14.72 14.23 13.42 15.06 11.42C15.89 9.42 15.43 7.13 13.9 5.6C12.37 4.07 10.08 3.61 8.08 4.44C6.08 5.27 4.78 7.21 4.78 9.37L4.78 9.37ZM6.7 9.91L6.7 8.84C6.7 8.8 6.71 8.76 6.73 8.72C6.75 8.68 6.77 8.64 6.8 8.61C6.83 8.58 6.86 8.56 6.9 8.54C6.94 8.53 6.98 8.52 7.02 8.52L10.12 8.52L10.12 6.73C10.12 6.67 10.14 6.61 10.18 6.55C10.21 6.5 10.26 6.46 10.32 6.44C10.38 6.41 10.44 6.41 10.51 6.42C10.57 6.43 10.63 6.46 10.67 6.51L13.32 9.15C13.35 9.18 13.37 9.21 13.38 9.25C13.4 9.29 13.41 9.33 13.41 9.38C13.41 9.42 13.4 9.46 13.38 9.5C13.37 9.54 13.35 9.57 13.32 9.6L10.67 12.25C10.63 12.29 10.57 12.32 10.51 12.34C10.44 12.35 10.38 12.34 10.32 12.32C10.26 12.29 10.21 12.25 10.18 12.2C10.14 12.15 10.12 12.09 10.12 12.02L10.12 10.23L7.03 10.23C6.98 10.23 6.94 10.22 6.9 10.2C6.86 10.19 6.83 10.16 6.8 10.13C6.77 10.1 6.75 10.07 6.73 10.03C6.71 9.99 6.71 9.95 6.71 9.91L6.7 9.91Z" />
</svg>