<svg style="margin:6px" viewBox="0 0 24 22" fill="none" xmlns="http://www.w3.org/2000/svg" class="add-to-wishlist" height="20" width="20"><path d="M11.0661 2.81728L11.6026 3.45246L12.1391 2.81728C13.2867 1.45859 15.0479 0.600098 16.8697 0.600098C20.0815 0.600098 22.6051 3.13599 22.6051 6.38807C22.6051 8.38789 21.72 10.2564 20.0229 12.3496C18.3175 14.4529 15.8645 16.6977 12.8407 19.4622L12.826 19.4756L12.8249 19.4766L11.6008 20.6001L10.3798 19.4879L10.3783 19.4866L10.3336 19.4457C10.3336 19.4457 10.3336 19.4457 10.3336 19.4457C7.31862 16.6834 4.87347 14.4409 3.17365 12.3404C1.4821 10.25 0.600098 8.38442 0.600098 6.38807C0.600098 3.13599 3.12361 0.600098 6.33544 0.600098C8.15729 0.600098 9.91845 1.45859 11.0661 2.81728Z" stroke="#000000" stroke-width="1"></path></svg>